<?xml version="1.0" encoding="UTF-8"?>
<svg xmlns="http://www.w3.org/2000/svg" viewBox="0 0 83.22 128">
  <defs>
    <style>
      .cls-1 {
        fill: #96989a;
      }

      .cls-2, .cls-3 {
        fill: #fff;
      }

      .cls-4, .cls-5, .cls-6, .cls-7, .cls-8, .cls-9, .cls-10, .cls-11 {
        mix-blend-mode: multiply;
      }

      .cls-4, .cls-3 {
        opacity: .4;
      }

      .cls-4, .cls-7 {
        fill: #cb6628;
      }

      .cls-5 {
        opacity: .8;
      }

      .cls-5, .cls-8, .cls-9 {
        fill: #c9c9cb;
      }

      .cls-12 {
        fill: #6e7172;
      }

      .cls-3 {
        mix-blend-mode: color-dodge;
      }

      .cls-13 {
        isolation: isolate;
      }

      .cls-14 {
        fill: #f8a162;
      }

      .cls-6, .cls-15 {
        fill: #929497;
      }

      .cls-16 {
        fill: #efe8e5;
      }

      .cls-7 {
        opacity: .5;
      }

      .cls-17, .cls-18, .cls-19 {
        mix-blend-mode: screen;
      }

      .cls-17, .cls-20 {
        fill: #babcbe;
      }

      .cls-18, .cls-21 {
        fill: #234870;
      }

      .cls-22 {
        fill: #3f4140;
      }

      .cls-23 {
        fill: #e97730;
      }

      .cls-24, .cls-11 {
        fill: #e4e4e5;
      }

      .cls-25 {
        fill: none;
      }

      .cls-9, .cls-10 {
        opacity: .6;
      }

      .cls-19 {
        fill: #787877;
      }

      .cls-26 {
        fill: #ddd9d6;
      }

      .cls-27 {
        fill: #636563;
      }
    </style>
  </defs>
  <g class="cls-13">
    <g id="Layer_1" data-name="Layer 1">
      <g>
        <path class="cls-23" d="M57.93,119.59v-1.96s-.84-41.33-.84-41.33l-1.88-51.31c-.96-8.8-4.3-15.49-7.88-20.31-1-1.35-2.18-2.82-3.17-3.88-.9-.64-1.73-.88-2.82-.79-.73,.06-1.42,.3-2.05,.66-1.11,1.15-2.26,2.49-3.39,4.01-3.58,4.82-6.93,11.52-7.88,20.31l-1.88,51.31-.84,41.33v1.96H57.93Z"/>
        <path class="cls-23" d="M57.93,119.59v-1.96s-.84-41.33-.84-41.33l-1.88-51.31c-.96-8.8-4.3-15.49-7.88-20.31-1-1.35-2.18-2.82-3.17-3.88-.9-.64-1.73-.88-2.82-.79-.73,.06-1.42,.3-2.05,.66-1.11,1.15-2.26,2.49-3.39,4.01-3.58,4.82-6.93,11.52-7.88,20.31l-1.88,51.31-.84,41.33v1.96H57.93Z"/>
        <path class="cls-14" d="M54.26,19.53c-1.48-6.17-4.14-11.08-6.94-14.85-1-1.35-2.18-2.82-3.17-3.88-.9-.64-1.73-.88-2.82-.79-.73,.06-1.42,.3-2.05,.66-1.11,1.15-2.26,2.49-3.39,4.01-2.8,3.77-5.46,8.69-6.94,14.87,5.34-.91,14.28-1.72,25.3-.02Z"/>
        <path class="cls-4" d="M57.92,117.64l-.84-41.33-1.88-51.31c-.96-8.8-4.3-15.49-7.88-20.31-1-1.35-2.18-2.82-3.17-3.88-.9-.64-1.73-.88-2.82-.79-.73,.06-1.42,.3-2.05,.66-1.11,1.15-2.26,2.49-3.39,4.01-3.58,4.82-6.93,11.52-7.88,20.31l-1.88,51.31-.84,41.33v1.96H57.93v-1.96ZM40.16,20.78V118.09h-13.71s3.19-80.66,3.9-92.9c.71-12.24,9.56-22.6,9.56-22.6,1.16-.35,.25,18.18,.25,18.18Z"/>
        <path class="cls-4" d="M48.26,16.97c1.82,9.11,2.39,20.05,2.55,29.3,.19,10.39-.43,19.25-.54,29.64-.11,10.42-.24,20.84-.26,31.26,0,4.14-.04,8.28-.04,12.41h7.94v-1.96s-.84-41.33-.84-41.33l-1.88-51.31c-.96-8.8-4.3-15.49-7.88-20.31-1-1.35-2.18-2.82-3.17-3.88-.84-.61-1.64-.85-2.63-.8,3.33,5.14,5.53,10.91,6.74,16.97Z"/>
        <path class="cls-3" d="M34.35,33.71v-10.62s.06-9.77,4.03-16.88c0,0-5.61,8.52-6.26,16.24-.36,4.31-.72,9.97-.96,14.13,1.04-.97,2.12-1.91,3.18-2.86Z"/>
        <path class="cls-7" d="M57.95,116.27v-1.39s-.84-29.32-.84-29.32l-1.89-36.41c-.96-6.24-4.31-10.99-7.9-14.42-1-.95-2.18-2-3.17-2.75-.9-.46-1.74-.62-2.82-.56-.74,.04-1.42,.22-2.06,.47-1.11,.82-2.26,1.76-3.39,2.84-3.59,3.42-6.94,8.17-7.9,14.42l-1.89,36.41-.84,29.32v1.39s32.69,0,32.69,0Z"/>
        <g>
          <g>
            <g>
              <g>
                <path class="cls-27" d="M27.46,75.2s-2.94,10.25-12.97,15.28c-3.87,1.94-8.22,3.98-10.2,6.49-3.14,3.99-3.91,8.82-4.29,13.81l26.39,5.44,4.64-33.79-3.57-7.22Z"/>
                <path class="cls-24" d="M27.3,77.8s-2.64,9.21-11.66,13.73c-3.48,1.74-7.39,3.58-9.17,5.83-2.82,3.58-3.51,7.93-3.86,12.41l23.72,4.89,4.17-30.37-3.21-6.49Z"/>
                <path class="cls-24" d="M27.3,77.8s-2.64,9.21-11.66,13.73c-3.48,1.74-7.39,3.58-9.17,5.83-2.82,3.58-3.51,7.93-3.86,12.41l23.72,4.89,4.17-30.37-3.21-6.49Z"/>
                <path class="cls-12" d="M6.51,103.76l-2.15-.34c-.19,1.25-.34,2.51-.48,3.76l2.19,.4c.18-1.27,.35-2.54,.45-3.82Z"/>
                <path class="cls-12" d="M9.49,104.23l-2.42-.38c-.1,1.28-.27,2.56-.46,3.83l2.45,.45c.1-1.3,.29-2.6,.42-3.9Z"/>
                <path class="cls-12" d="M12.88,104.77l-2.84-.45c-.14,1.3-.32,2.61-.42,3.91l2.79,.51c.15-1.32,.35-2.64,.48-3.97Z"/>
                <path class="cls-12" d="M22.86,106.35l-2.52-.4c-.28,1.36-.5,2.73-.69,4.11l2.51,.46c.18-1.4,.41-2.79,.7-4.17Z"/>
                <path class="cls-12" d="M26.14,106.87l-2.73-.43c-.3,1.38-.53,2.78-.71,4.18l2.81,.51c.2-1.42,.45-2.83,.63-4.26Z"/>
                <path class="cls-12" d="M19.78,105.86l-2.98-.47c-.26,1.34-.52,2.67-.7,4.02l2.99,.55c.19-1.37,.41-2.74,.69-4.1Z"/>
                <path class="cls-12" d="M16.24,105.3l-2.8-.44c-.13,1.33-.33,2.65-.48,3.98l2.59,.47c.18-1.34,.44-2.68,.7-4.01Z"/>
                <g class="cls-10">
                  <path class="cls-8" d="M27.46,75.2s-1.13,3.93-4.36,8.11c-.34,2.68-.59,5.37-.84,8.07-.37,4.06-.87,8.09-1.36,12.13-.47,3.77-.87,7.55-1.16,11.33l6.65,1.37,4.64-33.79-3.57-7.22Z"/>
                </g>
                <g class="cls-10">
                  <path class="cls-8" d="M27.46,75.2s-.59,2.05-2.14,4.76c-.09,3.11-.92,34.16-1,35.82l2.06,.42,4.64-33.79-3.57-7.22Z"/>
                </g>
              </g>
              <path class="cls-19" d="M1.57,107.81c.17-1.55,.41-3.09,.87-4.59,.83-2.71,2.17-5.27,4.33-7.16,2.36-2.07,5.31-3.23,7.99-4.78,1.34-.78,2.65-1.66,3.81-2.69-2.89,1.96-6.48,3.46-10.98,6.34C.43,99.5,.48,110.16,.48,110.16l.83,.23c.02-.86,.16-1.73,.26-2.58Z"/>
            </g>
            <g>
              <g>
                <path class="cls-27" d="M55.76,75.2s2.94,10.25,12.97,15.28c3.87,1.94,8.22,3.98,10.2,6.49,3.14,3.99,3.91,8.82,4.29,13.81l-26.39,5.44-4.64-33.79,3.57-7.22Z"/>
                <path class="cls-24" d="M55.92,77.8s2.65,9.21,11.66,13.73c3.48,1.74,7.39,3.58,9.17,5.83,2.82,3.58,3.51,7.93,3.86,12.41l-23.72,4.89-4.17-30.37,3.2-6.49Z"/>
                <path class="cls-24" d="M55.92,77.8s2.65,9.21,11.66,13.73c3.48,1.74,7.39,3.58,9.17,5.83,2.82,3.58,3.51,7.93,3.86,12.41l-23.72,4.89-4.17-30.37,3.2-6.49Z"/>
                <path class="cls-12" d="M76.71,103.76l2.16-.34c.19,1.25,.34,2.51,.48,3.76l-2.19,.4c-.18-1.27-.35-2.54-.45-3.82Z"/>
                <path class="cls-12" d="M73.73,104.23l2.42-.38c.1,1.28,.27,2.56,.45,3.83l-2.45,.45c-.1-1.3-.29-2.6-.42-3.9Z"/>
                <path class="cls-12" d="M70.33,104.77l2.84-.45c.14,1.3,.32,2.61,.42,3.91l-2.79,.51c-.16-1.32-.36-2.64-.48-3.97Z"/>
                <path class="cls-12" d="M60.36,106.35l2.52-.4c.28,1.36,.5,2.73,.69,4.11l-2.51,.46c-.18-1.4-.41-2.79-.7-4.17Z"/>
                <path class="cls-12" d="M57.08,106.87l2.73-.43c.3,1.38,.53,2.78,.71,4.18l-2.81,.51c-.2-1.42-.45-2.83-.63-4.26Z"/>
                <path class="cls-12" d="M63.44,105.86l2.98-.47c.26,1.34,.52,2.67,.7,4.02l-2.99,.55c-.19-1.37-.41-2.74-.69-4.1Z"/>
                <path class="cls-12" d="M66.97,105.3l2.8-.44c.13,1.33,.33,2.65,.48,3.98l-2.59,.47c-.18-1.34-.44-2.68-.7-4.01Z"/>
                <g class="cls-10">
                  <path class="cls-8" d="M55.76,75.2s1.13,3.93,4.36,8.11c.34,2.68,.59,5.37,.84,8.07,.37,4.06,.87,8.09,1.37,12.13,.46,3.77,.87,7.55,1.15,11.33l-6.65,1.37-4.64-33.79,3.57-7.22Z"/>
                </g>
                <g class="cls-10">
                  <path class="cls-8" d="M55.76,75.2s.59,2.05,2.13,4.76c.09,3.11,.92,34.16,1,35.82l-2.06,.42-4.64-33.79,3.57-7.22Z"/>
                </g>
              </g>
              <path class="cls-19" d="M81.65,107.81c-.17-1.55-.41-3.09-.87-4.59-.83-2.71-2.17-5.27-4.33-7.16-2.36-2.07-5.31-3.23-7.99-4.78-1.34-.78-2.65-1.66-3.81-2.69,2.89,1.96,6.48,3.46,10.98,6.34,7.15,4.58,7.11,15.23,7.11,15.23l-.83,.23c-.01-.86-.16-1.73-.26-2.58Z"/>
            </g>
          </g>
          <g>
            <g>
              <g>
                <path class="cls-12" d="M38.87,128c-.03-1.16-.4-7.46-4.11-7.48-3.78-.03-4.31,6.51-4.37,7.48h8.48Z"/>
                <path class="cls-15" d="M38.11,123.59c-.58-1.62-1.58-3.06-3.35-3.07-1.76-.01-2.81,1.39-3.44,3l6.79,.07Z"/>
                <path class="cls-15" d="M38.41,124.6c-.06-.26-.14-.51-.22-.77l-6.97-.08c-.09,.25-.17,.51-.25,.76l7.43,.08Z"/>
                <path class="cls-15" d="M38.68,125.93c-.05-.35-.12-.72-.21-1.09l-7.56-.08c-.1,.37-.18,.74-.24,1.08l8.01,.09Z"/>
              </g>
              <path class="cls-6" d="M36.79,122.76c.6,1.7,.81,3.48,.81,5.24h1.27c-.03-1.16-.4-7.45-4.11-7.48,1.12,.42,1.75,1.45,2.03,2.24Z"/>
              <path class="cls-17" d="M32.93,124.2c.08-.63,.17-1.25,.3-1.88,.07-.35,.26-.7,.38-1.05-.16,.11-.31,.23-.44,.36-.37,.36-.62,.78-.81,1.2-.37,.8-.62,1.63-.75,2.46-.12,.82-.2,1.65-.27,2.47,0,.05,0,.09,0,.14h1.37c0-1.23,.06-2.47,.22-3.71Z"/>
            </g>
            <g>
              <g>
                <path class="cls-12" d="M54.04,128c-.04-1.16-.4-7.46-4.11-7.48-3.78-.03-4.31,6.51-4.37,7.48h8.48Z"/>
                <path class="cls-15" d="M53.28,123.59c-.58-1.62-1.58-3.06-3.35-3.07-1.76-.01-2.81,1.39-3.44,3l6.79,.07Z"/>
                <path class="cls-15" d="M53.58,124.6c-.06-.26-.14-.51-.22-.77l-6.97-.08c-.09,.25-.17,.51-.25,.76l7.43,.08Z"/>
                <path class="cls-15" d="M53.85,125.93c-.05-.35-.12-.72-.21-1.09l-7.56-.08c-.1,.37-.18,.74-.24,1.08l8.01,.09Z"/>
              </g>
              <path class="cls-6" d="M51.96,122.76c.6,1.7,.81,3.48,.81,5.24h1.27c-.04-1.16-.4-7.45-4.11-7.48,1.12,.42,1.75,1.45,2.03,2.24Z"/>
              <path class="cls-17" d="M48.09,124.2c.08-.63,.17-1.25,.3-1.88,.07-.35,.26-.7,.38-1.05-.16,.11-.31,.23-.44,.36-.37,.36-.62,.78-.81,1.2-.37,.8-.62,1.63-.75,2.46-.12,.82-.2,1.65-.27,2.47,0,.05,0,.09,0,.14h1.37c0-1.23,.07-2.47,.22-3.71Z"/>
            </g>
            <g>
              <g>
                <path class="cls-20" d="M40.16,126.02c-.05-2.46-.54-15.81-5.57-15.87-5.12-.06-5.84,13.8-5.92,15.87h11.49Z"/>
                <path class="cls-15" d="M39.13,116.67c-.78-3.45-2.15-6.49-4.54-6.52-2.38-.03-3.81,2.96-4.67,6.36l9.21,.16Z"/>
                <path class="cls-15" d="M39.54,118.82c-.09-.54-.18-1.09-.3-1.63l-9.45-.16c-.12,.53-.23,1.08-.33,1.61l10.08,.17Z"/>
                <path class="cls-15" d="M39.9,121.64c-.07-.73-.16-1.51-.28-2.31l-10.25-.17c-.13,.79-.24,1.56-.33,2.3l10.86,.18Z"/>
                <path class="cls-15" d="M40.1,124.36c-.03-.64-.08-1.39-.15-2.21l-10.97-.19c-.09,.82-.16,1.56-.2,2.2l11.32,.19Z"/>
                <path class="cls-15" d="M40.16,126.02c0-.26-.02-.66-.04-1.14l-11.38-.19c-.04,.61-.06,1.07-.07,1.34h11.49Z"/>
              </g>
              <path class="cls-6" d="M37.34,114.9c.82,3.61,1.1,7.39,1.11,11.12h1.72c-.05-2.46-.54-15.81-5.57-15.87,1.52,.9,2.37,3.08,2.75,4.75Z"/>
              <path class="cls-17" d="M32.11,117.96c.11-1.33,.23-2.66,.41-3.98,.1-.75,.35-1.49,.51-2.23-.22,.24-.42,.49-.59,.75-.5,.77-.84,1.66-1.09,2.54-.5,1.7-.84,3.46-1.01,5.22-.17,1.75-.27,3.5-.36,5.25,0,.1,0,.2,0,.3l1.85,.02c.01-2.63,.09-5.26,.3-7.88Z"/>
            </g>
            <g>
              <g>
                <path class="cls-20" d="M55.55,126.02c-.05-2.46-.54-15.81-5.57-15.87-5.13-.06-5.84,13.8-5.92,15.87h11.49Z"/>
                <path class="cls-15" d="M54.52,116.67c-.78-3.45-2.15-6.49-4.54-6.52-2.38-.03-3.81,2.96-4.67,6.36l9.21,.16Z"/>
                <path class="cls-15" d="M54.92,118.82c-.09-.54-.18-1.09-.3-1.63l-9.45-.16c-.12,.53-.23,1.08-.33,1.61l10.08,.17Z"/>
                <path class="cls-15" d="M55.28,121.64c-.07-.73-.16-1.51-.28-2.31l-10.25-.17c-.13,.79-.24,1.56-.33,2.3l10.86,.18Z"/>
                <path class="cls-15" d="M55.48,124.36c-.03-.64-.08-1.39-.15-2.21l-10.97-.19c-.09,.82-.16,1.56-.2,2.2l11.32,.19Z"/>
                <path class="cls-15" d="M55.55,126.02c0-.26-.02-.66-.04-1.14l-11.38-.19c-.04,.61-.06,1.07-.07,1.34h11.49Z"/>
              </g>
              <path class="cls-6" d="M52.72,114.9c.82,3.61,1.1,7.39,1.1,11.12h1.72c-.05-2.46-.54-15.81-5.57-15.87,1.52,.9,2.37,3.08,2.75,4.75Z"/>
              <path class="cls-17" d="M47.49,117.96c.11-1.33,.23-2.66,.41-3.98,.1-.75,.35-1.49,.51-2.23-.22,.24-.42,.49-.59,.75-.5,.77-.84,1.66-1.09,2.54-.5,1.7-.84,3.46-1.01,5.22-.17,1.75-.27,3.5-.36,5.25,0,.1,0,.2,0,.3l1.85,.02c.01-2.63,.09-5.26,.3-7.88Z"/>
            </g>
            <path class="cls-26" d="M57.07,116.27v-1.34l-.79-28.41-1.79-35.28c-.91-6.05-4.08-10.65-7.47-13.97-.95-.93-2.06-1.94-3-2.66-.85-.44-1.64-.6-2.67-.55-.7,.04-1.34,.21-1.94,.46-1.05,.79-2.14,1.71-3.21,2.75-3.39,3.32-6.56,7.92-7.47,13.97l-1.78,35.28-.79,28.41v1.34h30.92Z"/>
            <path class="cls-2" d="M57.07,116.27v-1.34l-.79-28.41-1.79-35.28c-.91-6.05-4.08-10.65-7.47-13.97-.95-.93-2.06-1.94-3-2.66-.85-.44-1.64-.6-2.67-.55-.7,.04-1.34,.21-1.94,.46-1.05,.79-2.14,1.71-3.21,2.75-3.39,3.32-6.56,7.92-7.47,13.97l-1.78,35.28-.79,28.41v1.34h30.92Z"/>
            <path class="cls-27" d="M47.02,37.27c-.95-.93-2.06-1.94-3-2.66-.85-.44-1.64-.6-2.67-.55-.7,.04-1.34,.21-1.94,.46-1.05,.79-2.14,1.71-3.21,2.75-1.45,1.42-2.86,3.08-4.07,4.98,0,0,7.48-4.5,18.7-.42h0c-1.15-1.73-2.45-3.24-3.8-4.55Z"/>
            <g>
              <path class="cls-2" d="M55.35,68.26l-.02-.32c-13.25-1.65-22.88-.69-27.45,.02l-.02,.32c4.53-.72,14.17-1.69,27.48-.02Z"/>
              <path class="cls-2" d="M26.97,85.99l-.02,.32c4.13-.73,14.54-2.01,29.3-.06l-.02-.32c-14.69-1.93-25.08-.67-29.27,.06Z"/>
              <path class="cls-2" d="M26.46,103.96v.32c3.76-.7,14.62-2.22,30.31-.08v-.32c-15.61-2.12-26.45-.63-30.31,.08Z"/>
            </g>
            <path class="cls-11" d="M57.07,114.92l-.79-28.41-1.79-35.28c-.91-6.05-4.08-10.65-7.47-13.97-.95-.93-2.06-1.94-3-2.66-.85-.44-1.64-.6-2.67-.55-.7,.04-1.34,.21-1.94,.46-1.05,.79-2.14,1.71-3.21,2.75-3.39,3.32-6.56,7.92-7.47,13.97l-1.78,35.28-.79,28.41v1.34h30.92v-1.34Zm-22.47-21.87c-5.42,3.31-5.92,20.75-5.92,20.75l-1.33-.4,2.73-62.41c1.42-7.75,6.36-12.95,8.56-14.93,.16-.05,.32-.09,.49-.1,.2-.02,.38,.01,.55,.08,.23,.13,.45,.31,.67,.56,.05,.06,.1,.12,.15,.18,.21,.33,.37,.71,.48,1.05l.39,53.59c-4.31-.31-6.76,1.64-6.76,1.64Z"/>
            <g>
              <path class="cls-21" d="M31.59,63.06s1.31-6.7,10.02-7.64v-4.39s-10.02-1.21-12.32,12.03h2.3Z"/>
              <path class="cls-18" d="M40.52,52.32c-2.8,.35-5.38,1.68-7.2,3.85-1.46,1.75-2.4,3.82-2.97,6.01h.24c.72-1.81,1.98-3.52,3.28-4.73,1.92-1.79,4.42-2.94,7.03-3.21v-1.96c-.13,.01-.25,.02-.38,.04Z"/>
              <path class="cls-21" d="M52.18,63.06s-1.31-6.7-10.02-7.64v-4.39s10.02-1.21,12.32,12.03h-2.3Z"/>
              <path class="cls-18" d="M53.13,62.1c-.59-2.61-1.44-5.13-3.52-7-1.87-1.69-4.26-2.65-6.74-2.83v1.93c2.57,.17,4.99,1.18,6.81,3.04,1.36,1.4,2.35,3.07,3.08,4.86h.38Z"/>
            </g>
            <g>
              <path class="cls-25" d="M39.91,34.33c.22-.07,.44-.13,.67-.17-.43,.03-.67,.17-.67,.17Z"/>
              <path class="cls-25" d="M40.48,36.79c-.05-.06-.1-.12-.15-.18-.22-.25-.44-.43-.67-.56-.17-.06-.35-.09-.55-.08-.17,.01-.33,.05-.49,.1-2.2,1.98-7.14,7.18-8.56,14.93l-2.73,62.41,1.33,.4s.51-17.44,5.92-20.75c0,0,2.45-1.95,6.76-1.64l-.39-53.59c-.11-.34-.27-.72-.48-1.05Z"/>
              <path class="cls-11" d="M39.91,34.33c-.17,.06-.34,.12-.51,.18-.07,.05-.13,.1-.2,.15l.7-.34h0Z"/>
              <path class="cls-9" d="M57.07,114.92l-.79-28.41-1.79-35.28c-.91-6.05-4.08-10.65-7.47-13.97-.95-.93-2.06-1.94-3-2.66-.85-.44-1.64-.6-2.67-.55-.26,.02-.52,.05-.77,.1,.99-.07,3.01,.47,5.47,4.79,3.53,6.2,3.85,14.36,4.08,22.6v32.75s-2.23-2.32-5,0c-2.19,1.84-2.56,16.09-2.62,21.97h14.55v-1.34Z"/>
            </g>
            <g>
              <g>
                <path class="cls-16" d="M40.39,98.58s-.78-4.79-4.28-4.24c-3.5,.55-5.4,6.51-5.97,10.67-.57,4.16-.58,10.79-.58,10.79h11.81s-.1-14.71-.97-17.22Z"/>
                <path class="cls-11" d="M36.63,94.67c.89,.8,1.07,2.02,1.23,3.14,.51,3.55,.38,7.13,.62,10.7,.16,2.43,.39,4.86,.46,7.29h2.42s-.1-14.71-.97-17.22c0,0-.78-4.79-4.28-4.24,0,0,0,0,0,0,.19,.07,.37,.17,.54,.32Z"/>
                <path class="cls-2" d="M32.14,114.68c-.23-5.83,.22-11.67,1.81-17.29-.75,1.27-1.44,2.57-1.88,4.03-.66,2.2-1.06,4.48-1.3,6.76-.23,2.16-.33,4.33-.37,6.5h1.74Z"/>
              </g>
              <g>
                <path class="cls-16" d="M43.47,98.58s.78-4.79,4.28-4.24c3.5,.55,5.4,6.51,5.97,10.67,.57,4.16,.58,10.79,.58,10.79h-11.81s.1-14.71,.97-17.22Z"/>
                <path class="cls-11" d="M47.23,94.67c-.89,.8-1.07,2.02-1.23,3.14-.51,3.55-.38,7.13-.62,10.7-.16,2.43-.39,4.86-.46,7.29h-2.42s.1-14.71,.97-17.22c0,0,.78-4.79,4.28-4.24,0,0,0,0,0,0-.19,.07-.37,.17-.54,.32Z"/>
                <path class="cls-2" d="M51.72,114.68c.23-5.83-.22-11.67-1.81-17.29,.75,1.27,1.44,2.57,1.88,4.03,.66,2.2,1.06,4.48,1.3,6.76,.23,2.16,.33,4.33,.37,6.5h-1.74Z"/>
              </g>
              <g>
                <path class="cls-12" d="M43.41,93.72c-.13-.54-.48-.87-.86-1.06-.21-.11-.43-.18-.62-.22-.19,.04-.41,.11-.62,.22-.38,.2-.74,.52-.86,1.06-.19,.83,.05,11.63,.26,19.92,.14,5.3,.26,9.58,.26,9.58,0,0-.1,1.19,.96,1.54,1.05-.35,.96-1.54,.96-1.54,0,0,.13-4.28,.26-9.58,.21-8.3,.45-19.1,.26-19.92Z"/>
                <path class="cls-2" d="M41.64,94.14c.13-.43,.47-.7,.86-.87-.03-.01-.05-.03-.08-.04-.17-.09-.34-.14-.49-.17-.15,.03-.33,.09-.49,.17-.31,.16-.59,.41-.69,.84-.15,.66,.03,9.27,.2,15.88,.06,2.35,.12,4.45,.16,5.85,0-19.69,.05-20.01,.53-21.66Z"/>
              </g>
            </g>
            <path class="cls-22" d="M41.93,124.52c-.09,0-.16-.07-.16-.16v-30.06c0-.09,.07-.16,.16-.16s.16,.07,.16,.16v30.06c0,.09-.07,.16-.16,.16Z"/>
          </g>
          <path class="cls-5" d="M51.16,62.97c-.74-2.04-2.11-4.8-6.93-5.93,0,0-9.15-1.6-12.11,6.69,0,0,2.94-4.82,8.04-5.39,4.31-.48,8.79,.59,11,4.64h0Z"/>
          <g>
            <g class="cls-10">
              <path class="cls-1" d="M28.28,85.14c0,.16-.12,.3-.28,.3-.16,0-.3-.12-.31-.28,0-.16,.12-.3,.28-.31,.16,0,.3,.12,.3,.29Z"/>
              <path class="cls-1" d="M32.3,84.4c0,.16-.12,.3-.28,.3-.16,0-.3-.12-.31-.28,0-.16,.12-.3,.28-.31,.16,0,.3,.12,.31,.28Z"/>
              <path class="cls-1" d="M36.32,83.99c-.02,.16-.16,.28-.32,.26-.16-.02-.28-.16-.26-.32,.02-.16,.16-.28,.32-.26,.16,.02,.28,.16,.26,.32Z"/>
              <path class="cls-1" d="M40.36,83.85c-.02,.16-.16,.28-.32,.26-.16-.02-.28-.16-.26-.32,.02-.16,.16-.28,.32-.26,.16,.02,.28,.16,.26,.32Z"/>
            </g>
            <g class="cls-10">
              <path class="cls-1" d="M54.57,85.14c0,.16,.12,.3,.28,.3,.16,0,.3-.12,.3-.28,0-.16-.12-.3-.28-.31-.16,0-.3,.12-.3,.29Z"/>
              <path class="cls-1" d="M50.55,84.4c0,.16,.12,.3,.28,.3,.16,0,.3-.12,.3-.28,0-.16-.12-.3-.28-.31-.16,0-.3,.12-.3,.28Z"/>
              <path class="cls-1" d="M46.53,83.99c.02,.16,.16,.28,.32,.26,.16-.02,.28-.16,.26-.32-.02-.16-.16-.28-.32-.26-.16,.02-.28,.16-.26,.32Z"/>
              <path class="cls-1" d="M42.49,83.85c.02,.16,.16,.28,.32,.26,.16-.02,.28-.16,.26-.32-.02-.16-.16-.28-.32-.26-.16,.02-.28,.16-.26,.32Z"/>
            </g>
          </g>
          <g>
            <g class="cls-10">
              <path class="cls-1" d="M28.28,102.47c0,.16-.12,.3-.28,.31-.16,0-.3-.12-.31-.28,0-.16,.12-.3,.28-.31,.16,0,.3,.12,.3,.28Z"/>
            </g>
            <g class="cls-10">
              <path class="cls-1" d="M54.57,102.47c0,.16,.12,.3,.28,.31,.16,0,.3-.12,.3-.28,0-.16-.12-.3-.28-.31-.16,0-.3,.12-.3,.28Z"/>
            </g>
          </g>
          <g>
            <g class="cls-10">
              <path class="cls-1" d="M29.4,66.93c0,.15-.11,.27-.26,.28-.15,0-.27-.11-.28-.26,0-.15,.11-.27,.26-.28,.15,0,.27,.11,.28,.26Z"/>
              <path class="cls-1" d="M33.05,66.26c0,.15-.11,.27-.26,.28-.15,0-.27-.11-.28-.26,0-.15,.11-.27,.26-.28,.15,0,.27,.11,.28,.26Z"/>
              <path class="cls-1" d="M36.71,65.89c-.01,.15-.15,.26-.29,.24-.15-.01-.26-.15-.24-.29,.01-.15,.15-.26,.29-.24,.15,.01,.26,.15,.24,.29Z"/>
              <path class="cls-1" d="M40.38,65.76c-.01,.15-.15,.25-.29,.24-.15-.01-.26-.15-.24-.29,.01-.15,.15-.26,.29-.24,.15,.01,.26,.15,.24,.29Z"/>
            </g>
            <g class="cls-10">
              <path class="cls-1" d="M53.31,66.93c0,.15,.11,.27,.26,.28,.15,0,.27-.11,.28-.26,0-.15-.11-.27-.26-.28-.15,0-.27,.11-.28,.26Z"/>
              <path class="cls-1" d="M49.65,66.26c0,.15,.11,.27,.26,.28,.15,0,.27-.11,.28-.26,0-.15-.11-.27-.26-.28-.15,0-.27,.11-.28,.26Z"/>
              <path class="cls-1" d="M45.99,65.89c.01,.15,.15,.26,.29,.24,.15-.01,.26-.15,.24-.29-.01-.15-.15-.26-.29-.24-.15,.01-.26,.15-.24,.29Z"/>
              <path class="cls-1" d="M42.32,65.76c.02,.15,.15,.25,.29,.24,.15-.01,.25-.15,.24-.29-.02-.15-.15-.26-.29-.24-.15,.01-.25,.15-.24,.29Z"/>
            </g>
          </g>
        </g>
      </g>
    </g>
  </g>
</svg>